<mxfile host="app.diagrams.net" modified="2021-07-01T09:24:27.791Z" agent="5.0 (Macintosh; Intel Mac OS X 10_15_6) AppleWebKit/605.1.15 (KHTML, like Gecko) Version/14.0.3 Safari/605.1.15" etag="Cvi2My2MX_BeCq9mYiMu" version="14.6.11" type="github">
  <diagram id="SDKuaxGCAH0535EP1mbP" name="第 1 页">
    <mxGraphModel dx="946" dy="558" grid="1" gridSize="10" guides="1" tooltips="1" connect="1" arrows="1" fold="1" page="1" pageScale="1" pageWidth="827" pageHeight="1169" math="0" shadow="0">
      <root>
        <mxCell id="0" />
        <mxCell id="1" parent="0" />
        <mxCell id="BmTvR8FjTTxFTOUG5frN-18" value="" style="rounded=0;whiteSpace=wrap;html=1;fontSize=16;fillColor=#f9f7ed;strokeColor=#36393d;" vertex="1" parent="1">
          <mxGeometry x="150" y="140" width="530" height="240" as="geometry" />
        </mxCell>
        <mxCell id="BmTvR8FjTTxFTOUG5frN-2" value="" style="ellipse;whiteSpace=wrap;html=1;aspect=fixed;fontSize=16;" vertex="1" parent="1">
          <mxGeometry x="180" y="200" width="100" height="100" as="geometry" />
        </mxCell>
        <mxCell id="BmTvR8FjTTxFTOUG5frN-1" value="" style="ellipse;whiteSpace=wrap;html=1;aspect=fixed;fontSize=16;" vertex="1" parent="1">
          <mxGeometry x="190" y="210" width="80" height="80" as="geometry" />
        </mxCell>
        <mxCell id="BmTvR8FjTTxFTOUG5frN-3" value="" style="endArrow=none;html=1;entryX=-0.033;entryY=1.2;entryDx=0;entryDy=0;entryPerimeter=0;fontSize=16;" edge="1" parent="1" target="BmTvR8FjTTxFTOUG5frN-4">
          <mxGeometry width="50" height="50" relative="1" as="geometry">
            <mxPoint x="260" y="220" as="sourcePoint" />
            <mxPoint x="280" y="210" as="targetPoint" />
          </mxGeometry>
        </mxCell>
        <mxCell id="BmTvR8FjTTxFTOUG5frN-4" value="从服务器要读的位置" style="text;html=1;align=center;verticalAlign=middle;resizable=0;points=[];autosize=1;strokeColor=none;fontSize=16;" vertex="1" parent="1">
          <mxGeometry x="275" y="170" width="160" height="20" as="geometry" />
        </mxCell>
        <mxCell id="BmTvR8FjTTxFTOUG5frN-5" value="" style="endArrow=none;html=1;entryX=0.007;entryY=0.05;entryDx=0;entryDy=0;entryPerimeter=0;fontSize=16;" edge="1" parent="1" target="BmTvR8FjTTxFTOUG5frN-6">
          <mxGeometry width="50" height="50" relative="1" as="geometry">
            <mxPoint x="240" y="290" as="sourcePoint" />
            <mxPoint x="260" y="300" as="targetPoint" />
          </mxGeometry>
        </mxCell>
        <mxCell id="BmTvR8FjTTxFTOUG5frN-6" value="主服务器已经写入的数据" style="text;html=1;align=center;verticalAlign=middle;resizable=0;points=[];autosize=1;strokeColor=none;fontSize=16;" vertex="1" parent="1">
          <mxGeometry x="270" y="310" width="190" height="20" as="geometry" />
        </mxCell>
        <mxCell id="BmTvR8FjTTxFTOUG5frN-9" value="" style="shape=curlyBracket;whiteSpace=wrap;html=1;rounded=1;flipH=1;fontSize=16;" vertex="1" parent="1">
          <mxGeometry x="280" y="205" width="20" height="90" as="geometry" />
        </mxCell>
        <mxCell id="BmTvR8FjTTxFTOUG5frN-10" value="增量数据" style="text;html=1;align=center;verticalAlign=middle;resizable=0;points=[];autosize=1;strokeColor=none;fontSize=16;" vertex="1" parent="1">
          <mxGeometry x="315" y="240" width="80" height="20" as="geometry" />
        </mxCell>
        <mxCell id="BmTvR8FjTTxFTOUG5frN-11" value="" style="rounded=1;whiteSpace=wrap;html=1;fontSize=16;fillColor=#ffe6cc;strokeColor=#d79b00;" vertex="1" parent="1">
          <mxGeometry x="540" y="190" width="90" height="120" as="geometry" />
        </mxCell>
        <mxCell id="BmTvR8FjTTxFTOUG5frN-12" value="" style="shape=flexArrow;endArrow=classic;html=1;fontSize=16;fillColor=#cce5ff;strokeColor=#36393d;" edge="1" parent="1">
          <mxGeometry width="50" height="50" relative="1" as="geometry">
            <mxPoint x="420" y="254.5" as="sourcePoint" />
            <mxPoint x="500" y="254.5" as="targetPoint" />
          </mxGeometry>
        </mxCell>
        <mxCell id="BmTvR8FjTTxFTOUG5frN-13" value="写入" style="text;html=1;align=center;verticalAlign=middle;resizable=0;points=[];autosize=1;strokeColor=#36393d;fontSize=16;fillColor=#cce5ff;" vertex="1" parent="1">
          <mxGeometry x="435" y="220" width="50" height="20" as="geometry" />
        </mxCell>
        <mxCell id="BmTvR8FjTTxFTOUG5frN-16" value="repl_backlog_buffer" style="text;html=1;align=center;verticalAlign=middle;resizable=0;points=[];autosize=1;strokeColor=none;fontSize=16;" vertex="1" parent="1">
          <mxGeometry x="150" y="340" width="160" height="20" as="geometry" />
        </mxCell>
        <mxCell id="BmTvR8FjTTxFTOUG5frN-17" value="replication buffer" style="text;html=1;align=center;verticalAlign=middle;resizable=0;points=[];autosize=1;strokeColor=none;fontSize=16;" vertex="1" parent="1">
          <mxGeometry x="525" y="330" width="130" height="20" as="geometry" />
        </mxCell>
        <mxCell id="BmTvR8FjTTxFTOUG5frN-19" value="主服务器" style="text;html=1;align=center;verticalAlign=middle;resizable=0;points=[];autosize=1;strokeColor=none;fontSize=16;" vertex="1" parent="1">
          <mxGeometry x="355" y="110" width="80" height="20" as="geometry" />
        </mxCell>
        <mxCell id="BmTvR8FjTTxFTOUG5frN-20" value="" style="rounded=0;whiteSpace=wrap;html=1;fontSize=16;fillColor=#ffcc99;strokeColor=#36393d;" vertex="1" parent="1">
          <mxGeometry x="800" y="140" width="120" height="240" as="geometry" />
        </mxCell>
        <mxCell id="BmTvR8FjTTxFTOUG5frN-21" value="" style="shape=flexArrow;endArrow=classic;html=1;fontSize=16;fillColor=#cdeb8b;strokeColor=#36393d;" edge="1" parent="1">
          <mxGeometry width="50" height="50" relative="1" as="geometry">
            <mxPoint x="640" y="260" as="sourcePoint" />
            <mxPoint x="790" y="260" as="targetPoint" />
          </mxGeometry>
        </mxCell>
        <mxCell id="BmTvR8FjTTxFTOUG5frN-22" value="命令传播" style="text;html=1;align=center;verticalAlign=middle;resizable=0;points=[];autosize=1;strokeColor=#36393d;fontSize=16;fillColor=#cdeb8b;" vertex="1" parent="1">
          <mxGeometry x="680" y="230" width="80" height="20" as="geometry" />
        </mxCell>
        <mxCell id="BmTvR8FjTTxFTOUG5frN-23" value="从服务器" style="text;html=1;align=center;verticalAlign=middle;resizable=0;points=[];autosize=1;strokeColor=none;fontSize=16;" vertex="1" parent="1">
          <mxGeometry x="820" y="110" width="80" height="20" as="geometry" />
        </mxCell>
      </root>
    </mxGraphModel>
  </diagram>
</mxfile>
